<svg xmlns="http://www.w3.org/2000/svg" version="1.1" xmlns:xlink="http://www.w3.org/1999/xlink" xmlns:svgjs="http://svgjs.dev/svgjs" width="1000" height="776" viewBox="0 0 1000 776"><g transform="matrix(1,0,0,1,-0.5137876568111892,0.31417004048580566)"><svg viewBox="0 0 318 247" data-background-color="#ffffff" preserveAspectRatio="xMidYMid meet" height="776" width="1000" xmlns="http://www.w3.org/2000/svg" xmlns:xlink="http://www.w3.org/1999/xlink"><g id="tight-bounds" transform="matrix(1,0,0,1,0.16338447486594987,-0.09999999999999432)"><svg viewBox="0 0 317.6732310502681 247.2" height="247.2" width="317.6732310502681"><g><svg viewBox="0 0 395.52 307.77709433291415" height="247.2" width="317.6732310502681"><g transform="matrix(1,0,0,1,0,185.94858418241563)"><svg viewBox="0 0 395.52 121.8285101504985" height="121.8285101504985" width="395.52"><g id="textblocktransform"><svg viewBox="0 0 395.52 121.8285101504985" height="121.8285101504985" width="395.52" id="textblock"><g><svg viewBox="0 0 395.52 74.47425047199496" height="74.47425047199496" width="395.52"><g transform="matrix(1,0,0,1,0,0)"><svg width="395.52" viewBox="3.83 -36.04 193.95 36.53" height="74.47425047199496" data-palette-color="#262626"><path d="M15.48-13.92L8.3-13.92 8.3 0 3.83 0 3.83-35.55 15.16-35.55Q20.12-35.55 22.95-32.58 25.78-29.61 25.78-24.68L25.78-24.68Q25.78-19.56 23.08-16.78 20.39-14.01 15.48-13.92L15.48-13.92ZM8.3-31.69L8.3-17.75 15.16-17.75Q18.14-17.75 19.73-19.53 21.31-21.31 21.31-24.63L21.31-24.63Q21.31-27.83 19.68-29.76 18.04-31.69 15.19-31.69L15.19-31.69 8.3-31.69ZM29.71-11.55L29.71-14.43Q29.71-20.19 32.5-23.55 35.3-26.9 39.89-26.9 44.48-26.9 47.28-23.63 50.07-20.36 50.14-14.72L50.14-14.72 50.14-11.94Q50.14-6.2 47.36-2.86 44.58 0.49 39.94 0.49L39.94 0.49Q35.35 0.49 32.58-2.76 29.81-6.01 29.71-11.55L29.71-11.55ZM34.03-14.45L34.03-11.94Q34.03-7.86 35.63-5.53 37.23-3.2 39.94-3.2L39.94-3.2Q45.65-3.2 45.82-11.45L45.82-11.45 45.82-14.43Q45.82-18.48 44.21-20.84 42.6-23.19 39.89-23.19L39.89-23.19Q37.23-23.19 35.63-20.84 34.03-18.48 34.03-14.45L34.03-14.45ZM65.16 0.49L65.16 0.49Q60.22 0.49 57.59-2.45 54.95-5.4 54.9-11.08L54.9-11.08 54.9-14.28Q54.9-20.19 57.48-23.55 60.05-26.9 64.67-26.9L64.67-26.9Q69.31-26.9 71.6-23.95 73.9-21 73.95-14.75L73.95-14.75 73.95-11.91 59.2-11.91 59.2-11.3Q59.2-7.06 60.8-5.13 62.4-3.2 65.4-3.2L65.4-3.2Q67.3-3.2 68.76-3.92 70.21-4.64 71.48-6.2L71.48-6.2 73.73-3.47Q70.92 0.49 65.16 0.49ZM64.67-23.19L64.67-23.19Q61.98-23.19 60.69-21.35 59.39-19.51 59.22-15.63L59.22-15.63 69.62-15.63 69.62-16.21Q69.45-19.97 68.27-21.58 67.08-23.19 64.67-23.19ZM80.49-32.81L84.78-32.81 84.78-26.42 88.76-26.42 88.76-22.92 84.78-22.92 84.78-6.54Q84.78-4.98 85.3-4.17 85.81-3.37 87.05-3.37L87.05-3.37Q87.91-3.37 88.79-3.66L88.79-3.66 88.74 0Q87.27 0.49 85.73 0.49L85.73 0.49Q83.17 0.49 81.83-1.34 80.49-3.17 80.49-6.52L80.49-6.52 80.49-22.92 76.46-22.92 76.46-26.42 80.49-26.42 80.49-32.81ZM106.14-13.92L98.96-13.92 98.96 0 94.5 0 94.5-35.55 105.82-35.55Q110.78-35.55 113.61-32.58 116.45-29.61 116.45-24.68L116.45-24.68Q116.45-19.56 113.75-16.78 111.05-14.01 106.14-13.92L106.14-13.92ZM98.96-31.69L98.96-17.75 105.82-17.75Q108.8-17.75 110.39-19.53 111.98-21.31 111.98-24.63L111.98-24.63Q111.98-27.83 110.34-29.76 108.71-31.69 105.85-31.69L105.85-31.69 98.96-31.69ZM126.26-26.42L126.26 0 121.94 0 121.94-26.42 126.26-26.42ZM126.6-33.42L126.6-33.42Q126.6-32.32 125.99-31.59 125.38-30.86 124.13-30.86L124.13-30.86Q122.91-30.86 122.3-31.59 121.69-32.32 121.69-33.42 121.69-34.52 122.3-35.28 122.91-36.04 124.13-36.04 125.35-36.04 125.98-35.27 126.6-34.5 126.6-33.42ZM142.49 0.49L142.49 0.49Q137.56 0.49 134.92-2.45 132.28-5.4 132.24-11.08L132.24-11.08 132.24-14.28Q132.24-20.19 134.81-23.55 137.39-26.9 142-26.9L142-26.9Q146.64-26.9 148.94-23.95 151.23-21 151.28-14.75L151.28-14.75 151.28-11.91 136.53-11.91 136.53-11.3Q136.53-7.06 138.13-5.13 139.73-3.2 142.73-3.2L142.73-3.2Q144.64-3.2 146.09-3.92 147.54-4.64 148.81-6.2L148.81-6.2 151.06-3.47Q148.25 0.49 142.49 0.49ZM142-23.19L142-23.19Q139.32-23.19 138.02-21.35 136.73-19.51 136.56-15.63L136.56-15.63 146.96-15.63 146.96-16.21Q146.79-19.97 145.6-21.58 144.42-23.19 142-23.19ZM165.63-3.2L165.63-3.2Q167.78-3.2 169.07-4.53 170.37-5.86 170.49-8.33L170.49-8.33 174.57-8.33Q174.42-4.52 171.87-2.01 169.32 0.49 165.63 0.49L165.63 0.49Q160.72 0.49 158.15-2.6 155.57-5.69 155.57-11.79L155.57-11.79 155.57-14.7Q155.57-20.68 158.14-23.79 160.7-26.9 165.61-26.9L165.61-26.9Q169.66-26.9 172.04-24.34 174.42-21.78 174.57-17.33L174.57-17.33 170.49-17.33Q170.34-20.26 169.09-21.73 167.83-23.19 165.61-23.19L165.61-23.19Q162.73-23.19 161.34-21.3 159.94-19.41 159.89-15.09L159.89-15.09 159.89-11.72Q159.89-7.06 161.27-5.13 162.65-3.2 165.63-3.2ZM188.99 0.49L188.99 0.49Q184.06 0.49 181.43-2.45 178.79-5.4 178.74-11.08L178.74-11.08 178.74-14.28Q178.74-20.19 181.32-23.55 183.89-26.9 188.51-26.9L188.51-26.9Q193.14-26.9 195.44-23.95 197.73-21 197.78-14.75L197.78-14.75 197.78-11.91 183.04-11.91 183.04-11.3Q183.04-7.06 184.64-5.13 186.23-3.2 189.24-3.2L189.24-3.2Q191.14-3.2 192.59-3.92 194.05-4.64 195.32-6.2L195.32-6.2 197.56-3.47Q194.76 0.49 188.99 0.49ZM188.51-23.19L188.51-23.19Q185.82-23.19 184.53-21.35 183.23-19.51 183.06-15.63L183.06-15.63 193.46-15.63 193.46-16.21Q193.29-19.97 192.11-21.58 190.92-23.19 188.51-23.19Z" opacity="1" transform="matrix(1,0,0,1,0,0)" fill="#262626" class="wordmark-text-0" data-fill-palette-color="primary" id="text-0"></path></svg></g></svg></g><g transform="matrix(1,0,0,1,0,92.05583362642165)"><svg viewBox="0 0 395.52 29.772676524076854" height="29.772676524076854" width="395.52"><g transform="matrix(1,0,0,1,0,0)"><svg width="395.52" viewBox="2.9 -37 632.28 47.6" height="29.772676524076854" data-palette-color="#262626"><path d="M16.95 0.6L16.95 0.6Q10.3 0.6 6.6-3.93 2.9-8.45 2.9-17.25L2.9-17.25Q2.9-26.05 6.6-30.78 10.3-35.5 16.95-35.5L16.95-35.5Q21.35-35.5 24.33-33.5 27.3-31.5 28.95-27.85L28.95-27.85 25.55-25.8Q24.5-28.5 22.35-30.13 20.2-31.75 16.95-31.75L16.95-31.75Q14.7-31.75 12.93-30.9 11.15-30.05 9.93-28.48 8.7-26.9 8.05-24.73 7.4-22.55 7.4-19.85L7.4-19.85 7.4-14.65Q7.4-9.25 9.9-6.2 12.4-3.15 16.95-3.15L16.95-3.15Q20.3-3.15 22.55-4.88 24.8-6.6 25.85-9.45L25.85-9.45 29.2-7.35Q27.55-3.65 24.45-1.53 21.35 0.6 16.95 0.6ZM45.05 0.6L45.05 0.6Q42.45 0.6 40.3-0.35 38.15-1.3 36.62-3.08 35.1-4.85 34.25-7.33 33.4-9.8 33.4-12.9L33.4-12.9Q33.4-15.95 34.25-18.45 35.1-20.95 36.62-22.73 38.15-24.5 40.3-25.45 42.45-26.4 45.05-26.4L45.05-26.4Q47.65-26.4 49.77-25.45 51.9-24.5 53.45-22.73 55-20.95 55.85-18.45 56.7-15.95 56.7-12.9L56.7-12.9Q56.7-9.8 55.85-7.33 55-4.85 53.45-3.08 51.9-1.3 49.77-0.35 47.65 0.6 45.05 0.6ZM45.05-2.95L45.05-2.95Q48.3-2.95 50.35-4.95 52.4-6.95 52.4-11.05L52.4-11.05 52.4-14.75Q52.4-18.85 50.35-20.85 48.3-22.85 45.05-22.85L45.05-22.85Q41.8-22.85 39.75-20.85 37.7-18.85 37.7-14.75L37.7-14.75 37.7-11.05Q37.7-6.95 39.75-4.95 41.8-2.95 45.05-2.95ZM67.3 0L63.3 0 63.3-25.8 67.3-25.8 67.3-21.6 67.5-21.6Q68.45-23.8 70.17-25.1 71.9-26.4 74.8-26.4L74.8-26.4Q78.8-26.4 81.12-23.83 83.45-21.25 83.45-16.55L83.45-16.55 83.45 0 79.45 0 79.45-15.85Q79.45-22.8 73.59-22.8L73.59-22.8Q72.4-22.8 71.27-22.5 70.15-22.2 69.25-21.6 68.34-21 67.82-20.08 67.3-19.15 67.3-17.9L67.3-17.9 67.3 0ZM95.69 0L91.69 0 91.69-25.8 95.69-25.8 95.69-21.6 95.89-21.6Q96.84-23.8 98.57-25.1 100.29-26.4 103.19-26.4L103.19-26.4Q107.19-26.4 109.52-23.83 111.84-21.25 111.84-16.55L111.84-16.55 111.84 0 107.84 0 107.84-15.85Q107.84-22.8 101.99-22.8L101.99-22.8Q100.79-22.8 99.67-22.5 98.54-22.2 97.64-21.6 96.74-21 96.22-20.08 95.69-19.15 95.69-17.9L95.69-17.9 95.69 0ZM129.79 0.6L129.79 0.6Q127.14 0.6 125.02-0.35 122.89-1.3 121.37-3.08 119.84-4.85 119.02-7.33 118.19-9.8 118.19-12.9L118.19-12.9Q118.19-15.95 119.02-18.45 119.84-20.95 121.37-22.73 122.89-24.5 125.02-25.45 127.14-26.4 129.79-26.4L129.79-26.4Q132.39-26.4 134.44-25.45 136.49-24.5 137.94-22.83 139.39-21.15 140.17-18.85 140.94-16.55 140.94-13.8L140.94-13.8 140.94-11.9 122.39-11.9 122.39-10.7Q122.39-9.05 122.92-7.63 123.44-6.2 124.42-5.15 125.39-4.1 126.82-3.5 128.24-2.9 130.04-2.9L130.04-2.9Q132.49-2.9 134.32-4.05 136.14-5.2 137.14-7.35L137.14-7.35 139.99-5.3Q138.74-2.65 136.09-1.03 133.44 0.6 129.79 0.6ZM129.79-23.05L129.79-23.05Q128.14-23.05 126.79-22.48 125.44-21.9 124.47-20.85 123.49-19.8 122.94-18.38 122.39-16.95 122.39-15.25L122.39-15.25 122.39-14.9 136.64-14.9 136.64-15.45Q136.64-18.9 134.77-20.98 132.89-23.05 129.79-23.05ZM157.14 0.6L157.14 0.6Q154.44 0.6 152.29-0.35 150.14-1.3 148.66-3.05 147.19-4.8 146.41-7.3 145.64-9.8 145.64-12.9L145.64-12.9Q145.64-16 146.41-18.5 147.19-21 148.66-22.75 150.14-24.5 152.29-25.45 154.44-26.4 157.14-26.4L157.14-26.4Q160.99-26.4 163.31-24.73 165.64-23.05 166.79-20.35L166.79-20.35 163.44-18.65Q162.74-20.65 161.14-21.75 159.54-22.85 157.14-22.85L157.14-22.85Q155.34-22.85 153.99-22.28 152.64-21.7 151.74-20.68 150.84-19.65 150.39-18.23 149.94-16.8 149.94-15.1L149.94-15.1 149.94-10.7Q149.94-7.3 151.76-5.13 153.59-2.95 157.14-2.95L157.14-2.95Q161.99-2.95 164.14-7.45L164.14-7.45 167.04-5.5Q165.79-2.7 163.31-1.05 160.84 0.6 157.14 0.6ZM183.39 0L178.39 0Q176.29 0 175.21-1.18 174.14-2.35 174.14-4.25L174.14-4.25 174.14-22.3 169.89-22.3 169.89-25.8 172.29-25.8Q173.59-25.8 174.06-26.33 174.54-26.85 174.54-28.15L174.54-28.15 174.54-32.95 178.14-32.95 178.14-25.8 183.79-25.8 183.79-22.3 178.14-22.3 178.14-3.5 183.39-3.5 183.39 0ZM192.23-31.85L192.23-31.85Q190.93-31.85 190.36-32.48 189.78-33.1 189.78-34.1L189.78-34.1 189.78-34.75Q189.78-35.75 190.36-36.38 190.93-37 192.23-37L192.23-37Q193.53-37 194.11-36.38 194.68-35.75 194.68-34.75L194.68-34.75 194.68-34.1Q194.68-33.1 194.11-32.48 193.53-31.85 192.23-31.85ZM190.23 0L190.23-25.8 194.23-25.8 194.23 0 190.23 0ZM206.73 0L202.73 0 202.73-25.8 206.73-25.8 206.73-21.6 206.93-21.6Q207.88-23.8 209.61-25.1 211.33-26.4 214.23-26.4L214.23-26.4Q218.23-26.4 220.56-23.83 222.88-21.25 222.88-16.55L222.88-16.55 222.88 0 218.88 0 218.88-15.85Q218.88-22.8 213.03-22.8L213.03-22.8Q211.83-22.8 210.71-22.5 209.58-22.2 208.68-21.6 207.78-21 207.26-20.08 206.73-19.15 206.73-17.9L206.73-17.9 206.73 0ZM252.88 2.85L252.88 2.85Q252.88 6.85 249.75 8.72 246.63 10.6 240.38 10.6L240.38 10.6Q234.33 10.6 231.68 8.95 229.03 7.3 229.03 4.25L229.03 4.25Q229.03 2.15 230.13 0.98 231.23-0.2 233.13-0.75L233.13-0.75 233.13-1.3Q230.83-2.4 230.83-4.9L230.83-4.9Q230.83-6.85 232.08-7.88 233.33-8.9 235.28-9.4L235.28-9.4 235.28-9.6Q232.98-10.7 231.7-12.75 230.43-14.8 230.43-17.5L230.43-17.5Q230.43-19.45 231.13-21.1 231.83-22.75 233.1-23.93 234.38-25.1 236.15-25.75 237.93-26.4 240.13-26.4L240.13-26.4Q242.88-26.4 245.03-25.4L245.03-25.4 245.03-25.85Q245.03-27.35 245.73-28.33 246.43-29.3 248.03-29.3L248.03-29.3 251.88-29.3 251.88-25.8 246.98-25.8 246.98-24.15Q248.38-22.95 249.15-21.28 249.93-19.6 249.93-17.5L249.93-17.5Q249.93-15.55 249.23-13.9 248.53-12.25 247.25-11.08 245.98-9.9 244.18-9.25 242.38-8.6 240.18-8.6L240.18-8.6Q238.93-8.6 237.68-8.85L237.68-8.85Q236.38-8.5 235.33-7.83 234.28-7.15 234.28-5.95L234.28-5.95Q234.28-4.8 235.38-4.4 236.48-4 238.23-4L238.23-4 243.73-4Q248.53-4 250.7-2.18 252.88-0.35 252.88 2.85ZM249.13 3.15L249.13 3.15Q249.13 1.6 247.95 0.68 246.78-0.25 243.78-0.25L243.78-0.25 235.18-0.25Q232.78 0.85 232.78 3.25L232.78 3.25Q232.78 4.95 234.05 6.15 235.33 7.35 238.38 7.35L238.38 7.35 242.08 7.35Q245.43 7.35 247.28 6.3 249.13 5.25 249.13 3.15ZM240.18-11.8L240.18-11.8Q242.73-11.8 244.23-13.03 245.73-14.25 245.73-16.8L245.73-16.8 245.73-18.2Q245.73-20.75 244.23-21.98 242.73-23.2 240.18-23.2L240.18-23.2Q237.63-23.2 236.13-21.98 234.63-20.75 234.63-18.2L234.63-18.2 234.63-16.8Q234.63-14.25 236.13-13.03 237.63-11.8 240.18-11.8ZM273.92 0L269.72 0 269.72-34.9 283.62-34.9Q288.32-34.9 290.85-32.23 293.37-29.55 293.37-24.9L293.37-24.9Q293.37-20.25 290.85-17.57 288.32-14.9 283.62-14.9L283.62-14.9 273.92-14.9 273.92 0ZM273.92-31.2L273.92-18.6 283.62-18.6Q286.12-18.6 287.5-19.9 288.87-21.2 288.87-23.6L288.87-23.6 288.87-26.2Q288.87-28.6 287.5-29.9 286.12-31.2 283.62-31.2L283.62-31.2 273.92-31.2ZM308.37 0.6L308.37 0.6Q305.77 0.6 303.62-0.35 301.47-1.3 299.95-3.08 298.42-4.85 297.57-7.33 296.72-9.8 296.72-12.9L296.72-12.9Q296.72-15.95 297.57-18.45 298.42-20.95 299.95-22.73 301.47-24.5 303.62-25.45 305.77-26.4 308.37-26.4L308.37-26.4Q310.97-26.4 313.1-25.45 315.22-24.5 316.77-22.73 318.32-20.95 319.17-18.45 320.02-15.95 320.02-12.9L320.02-12.9Q320.02-9.8 319.17-7.33 318.32-4.85 316.77-3.08 315.22-1.3 313.1-0.35 310.97 0.6 308.37 0.6ZM308.37-2.95L308.37-2.95Q311.62-2.95 313.67-4.95 315.72-6.95 315.72-11.05L315.72-11.05 315.72-14.75Q315.72-18.85 313.67-20.85 311.62-22.85 308.37-22.85L308.37-22.85Q305.12-22.85 303.07-20.85 301.02-18.85 301.02-14.75L301.02-14.75 301.02-11.05Q301.02-6.95 303.07-4.95 305.12-2.95 308.37-2.95ZM336.32 0.6L336.32 0.6Q333.67 0.6 331.54-0.35 329.42-1.3 327.89-3.08 326.37-4.85 325.54-7.33 324.72-9.8 324.72-12.9L324.72-12.9Q324.72-15.95 325.54-18.45 326.37-20.95 327.89-22.73 329.42-24.5 331.54-25.45 333.67-26.4 336.32-26.4L336.32-26.4Q338.92-26.4 340.97-25.45 343.02-24.5 344.47-22.83 345.92-21.15 346.69-18.85 347.47-16.55 347.47-13.8L347.47-13.8 347.47-11.9 328.92-11.9 328.92-10.7Q328.92-9.05 329.44-7.63 329.97-6.2 330.94-5.15 331.92-4.1 333.34-3.5 334.77-2.9 336.57-2.9L336.57-2.9Q339.02-2.9 340.84-4.05 342.67-5.2 343.67-7.35L343.67-7.35 346.52-5.3Q345.27-2.65 342.62-1.03 339.97 0.6 336.32 0.6ZM336.32-23.05L336.32-23.05Q334.67-23.05 333.32-22.48 331.97-21.9 330.99-20.85 330.02-19.8 329.47-18.38 328.92-16.95 328.92-15.25L328.92-15.25 328.92-14.9 343.17-14.9 343.17-15.45Q343.17-18.9 341.29-20.98 339.42-23.05 336.32-23.05ZM364.77 0L359.77 0Q357.67 0 356.59-1.18 355.52-2.35 355.52-4.25L355.52-4.25 355.52-22.3 351.27-22.3 351.27-25.8 353.67-25.8Q354.97-25.8 355.44-26.33 355.92-26.85 355.92-28.15L355.92-28.15 355.92-32.95 359.52-32.95 359.52-25.8 365.17-25.8 365.17-22.3 359.52-22.3 359.52-3.5 364.77-3.5 364.77 0ZM379.36 0.6L379.36 0.6Q375.76 0.6 373.34-0.78 370.91-2.15 369.16-4.45L369.16-4.45 372.01-6.75Q373.51-4.85 375.36-3.83 377.21-2.8 379.66-2.8L379.66-2.8Q382.21-2.8 383.64-3.9 385.06-5 385.06-7L385.06-7Q385.06-8.5 384.09-9.58 383.11-10.65 380.56-11.05L380.56-11.05 378.51-11.35Q376.71-11.6 375.21-12.13 373.71-12.65 372.59-13.53 371.46-14.4 370.84-15.7 370.21-17 370.21-18.8L370.21-18.8Q370.21-20.7 370.91-22.13 371.61-23.55 372.84-24.5 374.06-25.45 375.76-25.93 377.46-26.4 379.41-26.4L379.41-26.4Q382.56-26.4 384.69-25.3 386.81-24.2 388.41-22.25L388.41-22.25 385.76-19.85Q384.91-21.05 383.26-22.03 381.61-23 379.11-23L379.11-23Q376.61-23 375.34-21.93 374.06-20.85 374.06-19L374.06-19Q374.06-17.1 375.34-16.25 376.61-15.4 379.01-15L379.01-15 381.01-14.7Q385.31-14.05 387.11-12.23 388.91-10.4 388.91-7.45L388.91-7.45Q388.91-3.7 386.36-1.55 383.81 0.6 379.36 0.6ZM431.01-31.2L419.91-31.2 419.91 0 415.71 0 415.71-31.2 404.61-31.2 404.61-34.9 431.01-34.9 431.01-31.2ZM442.86 0.6L442.86 0.6Q440.26 0.6 438.11-0.35 435.96-1.3 434.43-3.08 432.91-4.85 432.06-7.33 431.21-9.8 431.21-12.9L431.21-12.9Q431.21-15.95 432.06-18.45 432.91-20.95 434.43-22.73 435.96-24.5 438.11-25.45 440.26-26.4 442.86-26.4L442.86-26.4Q445.46-26.4 447.58-25.45 449.71-24.5 451.26-22.73 452.81-20.95 453.66-18.45 454.51-15.95 454.51-12.9L454.51-12.9Q454.51-9.8 453.66-7.33 452.81-4.85 451.26-3.08 449.71-1.3 447.58-0.35 445.46 0.6 442.86 0.6ZM442.86-2.95L442.86-2.95Q446.11-2.95 448.16-4.95 450.21-6.95 450.21-11.05L450.21-11.05 450.21-14.75Q450.21-18.85 448.16-20.85 446.11-22.85 442.86-22.85L442.86-22.85Q439.61-22.85 437.56-20.85 435.51-18.85 435.51-14.75L435.51-14.75 435.51-11.05Q435.51-6.95 437.56-4.95 439.61-2.95 442.86-2.95ZM482.85 2.85L482.85 2.85Q482.85 6.85 479.73 8.72 476.6 10.6 470.35 10.6L470.35 10.6Q464.3 10.6 461.65 8.95 459 7.3 459 4.25L459 4.25Q459 2.15 460.1 0.98 461.2-0.2 463.1-0.75L463.1-0.75 463.1-1.3Q460.8-2.4 460.8-4.9L460.8-4.9Q460.8-6.85 462.05-7.88 463.3-8.9 465.25-9.4L465.25-9.4 465.25-9.6Q462.95-10.7 461.68-12.75 460.4-14.8 460.4-17.5L460.4-17.5Q460.4-19.45 461.1-21.1 461.8-22.75 463.08-23.93 464.35-25.1 466.13-25.75 467.9-26.4 470.1-26.4L470.1-26.4Q472.85-26.4 475-25.4L475-25.4 475-25.85Q475-27.35 475.7-28.33 476.4-29.3 478-29.3L478-29.3 481.85-29.3 481.85-25.8 476.95-25.8 476.95-24.15Q478.35-22.95 479.13-21.28 479.9-19.6 479.9-17.5L479.9-17.5Q479.9-15.55 479.2-13.9 478.5-12.25 477.23-11.08 475.95-9.9 474.15-9.25 472.35-8.6 470.15-8.6L470.15-8.6Q468.9-8.6 467.65-8.85L467.65-8.85Q466.35-8.5 465.3-7.83 464.25-7.15 464.25-5.95L464.25-5.95Q464.25-4.8 465.35-4.4 466.45-4 468.2-4L468.2-4 473.7-4Q478.5-4 480.68-2.18 482.85-0.35 482.85 2.85ZM479.1 3.15L479.1 3.15Q479.1 1.6 477.93 0.68 476.75-0.25 473.75-0.25L473.75-0.25 465.15-0.25Q462.75 0.85 462.75 3.25L462.75 3.25Q462.75 4.95 464.03 6.15 465.3 7.35 468.35 7.35L468.35 7.35 472.05 7.35Q475.4 7.35 477.25 6.3 479.1 5.25 479.1 3.15ZM470.15-11.8L470.15-11.8Q472.7-11.8 474.2-13.03 475.7-14.25 475.7-16.8L475.7-16.8 475.7-18.2Q475.7-20.75 474.2-21.98 472.7-23.2 470.15-23.2L470.15-23.2Q467.6-23.2 466.1-21.98 464.6-20.75 464.6-18.2L464.6-18.2 464.6-16.8Q464.6-14.25 466.1-13.03 467.6-11.8 470.15-11.8ZM496.9 0.6L496.9 0.6Q494.25 0.6 492.13-0.35 490-1.3 488.48-3.08 486.95-4.85 486.13-7.33 485.3-9.8 485.3-12.9L485.3-12.9Q485.3-15.95 486.13-18.45 486.95-20.95 488.48-22.73 490-24.5 492.13-25.45 494.25-26.4 496.9-26.4L496.9-26.4Q499.5-26.4 501.55-25.45 503.6-24.5 505.05-22.83 506.5-21.15 507.28-18.85 508.05-16.55 508.05-13.8L508.05-13.8 508.05-11.9 489.5-11.9 489.5-10.7Q489.5-9.05 490.03-7.63 490.55-6.2 491.53-5.15 492.5-4.1 493.93-3.5 495.35-2.9 497.15-2.9L497.15-2.9Q499.6-2.9 501.43-4.05 503.25-5.2 504.25-7.35L504.25-7.35 507.1-5.3Q505.85-2.65 503.2-1.03 500.55 0.6 496.9 0.6ZM496.9-23.05L496.9-23.05Q495.25-23.05 493.9-22.48 492.55-21.9 491.58-20.85 490.6-19.8 490.05-18.38 489.5-16.95 489.5-15.25L489.5-15.25 489.5-14.9 503.75-14.9 503.75-15.45Q503.75-18.9 501.88-20.98 500-23.05 496.9-23.05ZM525.35 0L520.35 0Q518.25 0 517.17-1.18 516.1-2.35 516.1-4.25L516.1-4.25 516.1-22.3 511.85-22.3 511.85-25.8 514.25-25.8Q515.55-25.8 516.02-26.33 516.5-26.85 516.5-28.15L516.5-28.15 516.5-32.95 520.1-32.95 520.1-25.8 525.75-25.8 525.75-22.3 520.1-22.3 520.1-3.5 525.35-3.5 525.35 0ZM532.2 0L532.2-37 536.2-37 536.2-21.6 536.4-21.6Q537.35-23.8 539.07-25.1 540.8-26.4 543.7-26.4L543.7-26.4Q547.7-26.4 550.02-23.83 552.35-21.25 552.35-16.55L552.35-16.55 552.35 0 548.35 0 548.35-15.85Q548.35-22.8 542.5-22.8L542.5-22.8Q541.3-22.8 540.17-22.5 539.05-22.2 538.15-21.6 537.25-21 536.72-20.08 536.2-19.15 536.2-17.9L536.2-17.9 536.2 0 532.2 0ZM570.29 0.6L570.29 0.6Q567.64 0.6 565.52-0.35 563.39-1.3 561.87-3.08 560.34-4.85 559.52-7.33 558.69-9.8 558.69-12.9L558.69-12.9Q558.69-15.95 559.52-18.45 560.34-20.95 561.87-22.73 563.39-24.5 565.52-25.45 567.64-26.4 570.29-26.4L570.29-26.4Q572.89-26.4 574.94-25.45 576.99-24.5 578.44-22.83 579.89-21.15 580.67-18.85 581.44-16.55 581.44-13.8L581.44-13.8 581.44-11.9 562.89-11.9 562.89-10.7Q562.89-9.05 563.42-7.63 563.94-6.2 564.92-5.15 565.89-4.1 567.32-3.5 568.74-2.9 570.54-2.9L570.54-2.9Q572.99-2.9 574.82-4.05 576.64-5.2 577.64-7.35L577.64-7.35 580.49-5.3Q579.24-2.65 576.59-1.03 573.94 0.6 570.29 0.6ZM570.29-23.05L570.29-23.05Q568.64-23.05 567.29-22.48 565.94-21.9 564.97-20.85 563.99-19.8 563.44-18.38 562.89-16.95 562.89-15.25L562.89-15.25 562.89-14.9 577.14-14.9 577.14-15.45Q577.14-18.9 575.27-20.98 573.39-23.05 570.29-23.05ZM592.04 0L588.04 0 588.04-25.8 592.04-25.8 592.04-21.05 592.29-21.05Q592.99-22.9 594.79-24.35 596.59-25.8 599.74-25.8L599.74-25.8 601.29-25.8 601.29-21.8 598.94-21.8Q595.69-21.8 593.87-20.58 592.04-19.35 592.04-17.5L592.04-17.5 592.04 0ZM604.94 0.6L604.94 0.6Q603.34 0.6 602.61-0.2 601.89-1 601.89-2.3L601.89-2.3 601.89-2.95Q601.89-4.25 602.61-5.05 603.34-5.85 604.94-5.85L604.94-5.85Q606.54-5.85 607.26-5.05 607.99-4.25 607.99-2.95L607.99-2.95 607.99-2.3Q607.99-1 607.26-0.2 606.54 0.6 604.94 0.6ZM618.53 0.6L618.53 0.6Q616.93 0.6 616.21-0.2 615.48-1 615.48-2.3L615.48-2.3 615.48-2.95Q615.48-4.25 616.21-5.05 616.93-5.85 618.53-5.85L618.53-5.85Q620.13-5.85 620.86-5.05 621.58-4.25 621.58-2.95L621.58-2.95 621.58-2.3Q621.58-1 620.86-0.2 620.13 0.6 618.53 0.6ZM632.13 0.6L632.13 0.6Q630.53 0.6 629.81-0.2 629.08-1 629.08-2.3L629.08-2.3 629.08-2.95Q629.08-4.25 629.81-5.05 630.53-5.85 632.13-5.85L632.13-5.85Q633.73-5.85 634.46-5.05 635.18-4.25 635.18-2.95L635.18-2.95 635.18-2.3Q635.18-1 634.46-0.2 633.73 0.6 632.13 0.6Z" opacity="1" transform="matrix(1,0,0,1,0,0)" fill="#262626" class="slogan-text-1" data-fill-palette-color="secondary" id="text-1"></path></svg></g></svg></g></svg></g></svg></g><g transform="matrix(1,0,0,1,113.57649948600553,0)"><svg viewBox="0 0 168.36700102798892 168.36700102798895" height="168.36700102798895" width="168.36700102798892"><g><svg></svg></g><g id="icon-0"><svg viewBox="0 0 168.36700102798892 168.36700102798895" height="168.36700102798895" width="168.36700102798892"><g><path transform="scale(1.68367,1.68367)" d="M30 100c-16.569 0-30-13.431-30-30v-40c0-16.569 13.431-30 30-30h40c16.569 0 30 13.431 30 30v40c0 16.569-13.431 30-30 30z" fill="#262626" fill-rule="nonzero" stroke="none" stroke-width="1" stroke-linecap="butt" stroke-linejoin="miter" stroke-miterlimit="10" stroke-dasharray="" stroke-dashoffset="0" font-family="none" font-weight="none" font-size="none" text-anchor="none" style="mix-blend-mode: normal" data-fill-palette-color="accent"></path></g><g transform="matrix(1,0,0,1,33.67347034074563,33.67340020559779)"><svg viewBox="0 0 101.02006034649766 101.02020061679337" height="101.02020061679337" width="101.02006034649766"><g><svg xmlns="http://www.w3.org/2000/svg" xmlns:xlink="http://www.w3.org/1999/xlink" version="1.1" x="0" y="0" viewBox="5 5.000000000000001 89.99987503166162 90" enable-background="new 0 0 100 100" xml:space="preserve" height="101.02020061679337" width="101.02006034649766" class="icon-z$-0" data-fill-palette-color="quaternary" id="z$-0"><path d="M73.27 85.247H14.753V26.73h30.93l9.753-9.753H14.753C9.367 16.977 5 21.343 5 26.73v58.517C5 90.634 9.367 95 14.753 95H73.27c5.386 0 9.753-4.366 9.753-9.753V44.564l-9.753 9.753V85.247z" fill="#ffffff" data-fill-palette-color="quaternary"></path><rect x="50.612" y="12.815" transform="matrix(-0.7071 -0.7071 0.7071 -0.7071 75.0239 110.3459)" width="19.506" height="53.641" fill="#ffffff" data-fill-palette-color="quaternary"></rect><path d="M93.889 14.541l-8.43-8.431c-1.481-1.48-3.881-1.48-5.362 0l-4.215 4.215 13.793 13.793 4.215-4.215C95.37 18.422 95.37 16.022 93.889 14.541z" fill="#ffffff" data-fill-palette-color="quaternary"></path><polygon points="31.056,55.152 27.607,72.393 44.848,68.944 " fill="#ffffff" data-fill-palette-color="quaternary"></polygon></svg></g></svg></g></svg></g></svg></g><g></g></svg></g><defs></defs></svg><rect width="317.6732310502681" height="247.2" fill="none" stroke="none" visibility="hidden"></rect></g></svg></g></svg>